# xmcd
#
# Track frame offsets:
#	150
#	12015
#	27110
#	41262
#	54587
#	67877
#	82585
#	94306
#	104889
#	123241
#	142278
#	154737
#
# Disc length: 2425 seconds
#
# Revision: 2
# Processed by: cddbd v1.5.2PL0 Copyright (c) Steve Scherf et al.
# Submitted via: audiograbber 1.83.01
#
DISCID=9409770c
DTITLE=Various Artist - Zoom ZPA031 - Vol. 31 Hits Of The Osmonds 
DYEAR=2007
DGENRE=Karaoke
TTITLE0=Donny Osmond - Young Love
TTITLE1=Donny Osmond - Puppy Love
TTITLE2=Donny Osmond - The Twelfth Of Never
TTITLE3=Donny Osmond - Why
TTITLE4=Maria Osmond - Paper Roses
TTITLE5=Donny and Maria Osmond - I'm Leaving It (All) Up To You
TTITLE6=Little Jimmy Osmond - Long Haired Lover From Liverpool
TTITLE7=The Osmonds  - Goin' Home
TTITLE8=The Osmonds  - Let Me In
TTITLE9=The Osmonds  - Love Me For A Reason
TTITLE10=The Osmonds  - Crazy Horses
TTITLE11=Donny Osmond - Donny Medley
EXTD=
EXTT0=
EXTT1=
EXTT2=
EXTT3=
EXTT4=
EXTT5=
EXTT6=
EXTT7=
EXTT8=
EXTT9=
EXTT10=
EXTT11=
PLAYORDER=
